<svg xmlns="http://www.w3.org/2000/svg" xmlns:xlink="http://www.w3.org/1999/xlink" id="Layer_1" x="0" y="0" version="1.1" viewBox="0 0 800 800" xml:space="preserve" style="enable-background:new 0 0 800 800"><style type="text/css">.st0{fill:#fff;filter:url(#Adobe_OpacityMaskFilter)}.st1{fill:url(#SVGID_1_)}.st2{fill:#fff}.st3{fill:url(#SVGID_2_)}.st4{mask:url(#af8361ac-9cc7-4f7b-b112-03d7d7a91454_1_)}.st5{fill:url(#SVGID_3_)}.st6{fill:#001d6c}</style><switch><g><g id="b4824e51-df1c-47f1-b178-43f62950bbb5"><g id="bf88e1f3-aaab-4c5a-aeeb-645692bac1ce"><g><defs><filter id="Adobe_OpacityMaskFilter" width="800" height="800" x="0" y="0" filterUnits="userSpaceOnUse"><feColorMatrix type="matrix" values="1 0 0 0 0 0 1 0 0 0 0 0 1 0 0 0 0 0 1 0"/></filter></defs><mask id="af8361ac-9cc7-4f7b-b112-03d7d7a91454_1_" width="800" height="800" x="0" y="0" maskUnits="userSpaceOnUse"><path d="M387.5,771.6l-300-175C79.8,592.1,75,583.9,75,575V225c0-8.9,4.8-17.1,12.5-21.6l300-175 c7.8-4.5,17.4-4.5,25.2,0l300,175c7.6,4.5,12.3,12.7,12.3,21.6v350h-50V239.4L400,78.9L125,239.4v321.3l287.5,167.8 L387.5,771.6z" class="st0"/><linearGradient id="SVGID_1_" x1="42.753" x2="432.247" y1="239.448" y2="14.552" gradientTransform="matrix(1 0 0 -1 0 802)" gradientUnits="userSpaceOnUse"><stop offset=".2" style="stop-color:#000;stop-opacity:0"/><stop offset=".6" style="stop-color:#000"/></linearGradient><rect width="375" height="250" x="50" y="550" class="st1"/><path d="M525,637.5h50v-225c0-8.9-4.8-17.1-12.5-21.6l-150-87.5c-7.8-4.5-17.4-4.5-25.2,0l-150,87.5 c-7.6,4.5-12.3,12.7-12.3,21.6V525h50v-98.2l125-72.9l125,72.9V637.5z" class="st2"/><linearGradient id="SVGID_2_" x1="2547.5" x2="2547.5" y1="127" y2="352" gradientTransform="matrix(-1 0 0 -1 3085 802)" gradientUnits="userSpaceOnUse"><stop offset=".2" style="stop-color:#000"/><stop offset="1" style="stop-color:#000;stop-opacity:0"/></linearGradient><rect width="125" height="225" x="475" y="450" class="st3"/></mask><g class="st4"><linearGradient id="SVGID_3_" x1="0" x2="800" y1="2" y2="802" gradientTransform="matrix(1 0 0 -1 0 802)" gradientUnits="userSpaceOnUse"><stop offset=".1" style="stop-color:#42be65"/><stop offset=".9" style="stop-color:#007d79"/></linearGradient><rect width="800" height="800" class="st5"/></g><path d="M400,775c-4.4,0-8.7-1.2-12.5-3.4l-75-43.8c-7.7-4.5-12.5-12.7-12.5-21.6v-87.5c0-8.9,4.8-17.1,12.5-21.6 l75-43.8c7.8-4.5,17.4-4.5,25.2,0l75,43.8c7.7,4.5,12.5,12.7,12.5,21.6v87.5c0,8.9-4.8,17.1-12.5,21.6l-75,43.8 C408.8,773.8,404.5,775,400,775z M350,691.9l50,29.2l50-29.2v-58.8l-50-29.2l-50,29.2V691.9z" class="st6"/></g></g></g></g></switch></svg>